PathFileType	4	(X/Y/Z)	c:\Git\powerlifing_model_clean\simulations\HC835B\Session1\HC835B_OGW_0001\marker_experimental.trc
DataRate	CameraRate	NumFrames	NumMarkers	Units	OrigDataRate	OrigDataStartFrame	OrigNumFrames
240.000000	240.000000	4	38	mm	240.000000	108	433
Frame#	Time	RPSI			LPSI			RASI			LASI			RTH1			RTH2			RTH3			RTH4			RSK1			RSK2			RSK3			RSK4			RCAL1			RCAL2			RCAL3			RST			RPT			RTN			RFMB			RSMB			RVMB			RFMH			RSMH			RVMH			RPM			LTH1			LTH2			LTH3			LTH4			LSK1			LSK2			LSK3			LSK4			LCAL1			LCAL2			LCAL3			LFMH			LVMH			
		X1	Y1	Z1	X2	Y2	Z2	X3	Y3	Z3	X4	Y4	Z4	X5	Y5	Z5	X6	Y6	Z6	X7	Y7	Z7	X8	Y8	Z8	X9	Y9	Z9	X10	Y10	Z10	X11	Y11	Z11	X12	Y12	Z12	X13	Y13	Z13	X14	Y14	Z14	X15	Y15	Z15	X16	Y16	Z16	X17	Y17	Z17	X18	Y18	Z18	X19	Y19	Z19	X20	Y20	Z20	X21	Y21	Z21	X22	Y22	Z22	X23	Y23	Z23	X24	Y24	Z24	X25	Y25	Z25	X26	Y26	Z26	X27	Y27	Z27	X28	Y28	Z28	X29	Y29	Z29	X30	Y30	Z30	X31	Y31	Z31	X32	Y32	Z32	X33	Y33	Z33	X34	Y34	Z34	X35	Y35	Z35	X36	Y36	Z36	X37	Y37	Z37	X38	Y38	Z38	

109	0.45	466.7960510253907	1139.708251953125	-1752.224243164063	577.5714721679689	1132.652465820313	-1750.287841796875	400.2060546875001	1088.276733398438	-1548.11572265625	637.9188232421876	1093.188354492188	-1542.817749023438	348.8863220214844	814.1832275390627	-1659.306762695313	363.6588745117188	794.4861450195315	-1603.64404296875	366.8878479003907	732.2033081054689	-1650.386840820313	394.0224914550782	714.4483032226564	-1601.5908203125	439.7841186523439	296.0531616210938	-1815.489501953125	438.2064819335939	272.1287536621094	-1758.223754882813	448.3921813964845	238.2898254394532	-1808.174194335938	458.688201904297	217.4754791259766	-1752.530395507813	522.1796875000001	93.88771820068361	-1884.927856445313	553.1691894531251	55.97349929809572	-1875.96875	489.890106201172	56.8170623779297	-1885.055908203125	561.1937866210939	67.88443756103517	-1806.486450195313	461.6192932128907	65.5634231567383	-1827.151733398438	542.8931274414064	85.22826385498048	-1751.69775390625	536.2420043945314	68.86008453369142	-1719.605102539063	487.126190185547	91.62135314941408	-1714.28857421875	447.2955627441407	39.38602447509766	-1786.03173828125	533.3118286132814	41.34848785400391	-1666.51171875	478.4403076171876	54.02356338500978	-1656.575439453125	423.8315734863282	32.61799240112305	-1709.087036132813	485.2283935546876	39.22480010986329	-1597.757934570313	726.8815917968751	830.9764404296877	-1515.457885742188	716.7802734375001	845.728698730469	-1456.833984375	723.1088256835939	764.6591796875001	-1461.621704101563	697.5215454101564	777.932800292969	-1407.233642578125	690.1137695312501	327.7390441894532	-1489.561279296875	698.7640991210939	307.8516540527344	-1440.748168945313	689.3555297851564	273.1747741699219	-1475.298706054688	682.7632446289064	255.3878479003907	-1421.5029296875	625.8441772460939	131.9941558837891	-1531.769775390625	652.0961914062501	92.00281524658205	-1535.7021484375	594.0417480468751	96.28747558593753	-1526.622680664063	611.7899169921876	83.8520965576172	-1307.762817382813	707.4707641601564	51.64556121826173	-1354.206176757813	
110	0.4541666666666667	467.5568237304689	1138.805297851563	-1745.63525390625	578.2659912109376	1131.44775390625	-1743.418334960938	399.9612731933595	1087.142456054688	-1541.806518554688	638.1118164062501	1091.29736328125	-1535.8662109375	348.9000244140626	813.5571899414065	-1654.5908203125	363.5791015625001	793.5227661132815	-1599.042846679688	366.9333496093751	731.6136474609376	-1646.052124023438	394.0081176757814	713.5595703125001	-1597.316650390625	440.0490112304689	296.3829956054688	-1813.930786132813	438.4160156250001	272.1648559570313	-1756.89892578125	448.5981750488282	238.4326477050782	-1807.0751953125	458.8345947265626	217.3677368164063	-1751.578369140625	522.4506225585939	94.31209564208986	-1884.574829101563	553.3963012695314	56.37787246704103	-1875.69677734375	490.1231689453126	57.277156829834	-1884.83251953125	561.4078979492189	68.13919830322267	-1806.1669921875	461.7921142578126	65.7647171020508	-1826.966918945313	542.8361816406251	85.34889984130861	-1751.21533203125	536.5010986328126	68.74007415771486	-1719.447998046875	487.1700744628907	91.53451538085939	-1713.983642578125	447.4468994140626	39.49967193603516	-1785.940063476563	533.2107543945314	41.24975585937501	-1666.317993164063	478.0277404785157	54.2179298400879	-1656.330932617188	423.7544860839845	32.67151260375977	-1709.047485351563	485.0834960937501	38.83268737792969	-1597.557983398438	725.8358764648439	829.4273071289065	-1508.853759765625	715.8629760742189	844.1815185546877	-1450.246826171875	721.8110351562501	763.0592651367189	-1455.15771484375	696.3588256835939	776.3707275390627	-1400.655517578125	690.1746826171876	324.2856445312501	-1474.890991210938	698.3429565429689	305.8621826171876	-1425.423706054688	688.9140014648439	269.8376770019532	-1458.79248046875	682.4330444335939	253.9494018554688	-1404.782958984375	626.8918457031251	127.3291397094727	-1512.088256835938	652.6221313476564	86.8723602294922	-1514.27685546875	594.4750976562501	91.36328887939455	-1505.511840820313	611.3385009765626	85.73062896728517	-1286.275268554688	707.1921997070314	52.09682464599611	-1331.290893554688	
111	0.4583333333333333	468.341033935547	1137.937133789063	-1739.016357421875	578.9208984375001	1130.201782226563	-1736.59326171875	399.7346801757814	1086.029418945313	-1535.471435546875	638.3070678710939	1089.338989257813	-1528.872924804688	348.9393920898438	813.126647949219	-1649.688842773438	363.4906921386719	792.624694824219	-1594.29296875	367.0220031738282	730.9163208007814	-1641.7275390625	393.8795166015626	712.5700073242189	-1593.055908203125	440.3179321289064	296.7172241210938	-1812.476806640625	438.5575561523439	272.2741088867188	-1755.508911132813	448.8415527343751	238.7244415283204	-1805.988159179688	458.9935302734376	217.2808227539063	-1750.553955078125	522.7500000000001	94.82767486572267	-1884.1513671875	553.6696166992189	56.82613372802736	-1875.416748046875	490.3812866210939	57.7202835083008	-1884.621826171875	561.6217651367189	68.31533813476564	-1805.877807617188	462.0100708007814	66.15171051025392	-1826.739135742188	543.1320190429689	85.36935424804689	-1751.042846679688	536.3160400390626	68.71223449707033	-1718.99951171875	487.215545654297	91.42148590087892	-1713.709228515625	447.5776672363282	39.60807800292969	-1785.835205078125	533.1108398437501	41.1561622619629	-1666.158935546875	478.3085327148439	53.71035385131837	-1656.295654296875	423.943817138672	32.4629020690918	-1709.089233398438	484.9385681152345	38.40192031860352	-1597.314453125	724.7925415039064	827.8215942382815	-1502.43408203125	714.8522338867189	842.4056396484377	-1443.87548828125	720.5610351562501	761.3301391601564	-1448.901977539063	695.3333740234376	774.5676269531252	-1394.265014648438	690.2291259765626	321.0142822265626	-1460.289428710938	698.1304931640626	304.0851440429688	-1410.248046875	688.7192993164064	267.0246887207032	-1442.543579101563	682.1403808593751	252.7196502685547	-1388.231079101563	627.0447387695314	122.1878051757813	-1491.431274414063	653.0780639648439	81.97135162353517	-1492.680908203125	594.8767700195314	86.7059783935547	-1484.2333984375	610.8796386718751	87.90298461914064	-1264.999877929688	706.8939819335939	52.9356155395508	-1308.516235351563	
112	0.4625	469.1772766113282	1137.067016601563	-1732.338745117188	579.5529174804689	1128.952270507813	-1729.705200195313	399.4934997558595	1084.77587890625	-1529.150024414063	638.5178222656251	1087.268920898438	-1521.911865234375	348.9605102539063	812.4027099609377	-1644.9384765625	363.3271484375001	791.6850585937502	-1589.565063476563	366.9273071289063	730.5181884765626	-1637.20849609375	393.733367919922	711.6420288085939	-1588.66064453125	440.5517883300782	296.9635620117188	-1810.905151367188	438.7367248535157	272.0880432128907	-1754.171264648438	449.0679626464845	238.9387969970704	-1804.777465820313	459.1282958984376	217.2482299804688	-1749.495971679688	523.0687255859376	95.38514709472658	-1883.780151367188	553.9219360351564	57.24718093872072	-1875.1474609375	490.6414184570314	58.22346496582033	-1884.421875	561.7444458007814	68.49298095703126	-1805.537109375	462.2248840332032	66.46383666992189	-1826.572875976563	543.0535888671876	85.33616638183595	-1750.42529296875	536.2943115234376	68.65066528320314	-1718.661865234375	487.2098999023439	91.38722229003908	-1713.40625	447.7292785644532	39.84179306030274	-1785.720336914063	533.0373535156251	41.06835937500001	-1665.980712890625	478.2187500000001	53.52284240722658	-1656.118530273438	423.967254638672	32.35889434814454	-1709.11083984375	484.9504394531251	37.99795150756837	-1597.204956054688	723.5435791015626	825.8857421875002	-1496.289794921875	713.9490966796876	840.4304199218752	-1437.664306640625	719.1702880859376	759.2973022460939	-1442.8544921875	694.3630981445314	772.6545410156252	-1388.1123046875	690.2598876953126	317.7557067871094	-1445.75146484375	697.8214721679689	302.3618469238282	-1395.1708984375	689.0328979492189	264.3287658691407	-1426.464477539063	681.8697509765626	251.6120147705079	-1371.752197265625	627.4871826171876	117.6450119018555	-1471.195678710938	653.5530395507814	77.3845901489258	-1471.087280273438	595.2727661132814	82.35862731933595	-1463.031127929688	610.3756103515626	90.4783401489258	-1243.795776367188	706.6254272460939	54.26631164550783	-1285.907470703125	
